<svg width="88" height="88" viewBox="0 0 88 88" fill="none" xmlns="http://www.w3.org/2000/svg">
<rect width="88" height="88" rx="8" fill="black"/>
<path d="M45.4409 30.4405C43.4374 28.4372 40.7739 27.3339 37.9407 27.334C36.6854 27.334 35.668 28.3516 35.668 29.6067C35.6682 30.862 36.6855 31.8795 37.9408 31.8795C39.5598 31.8795 41.0817 32.5098 42.2266 33.6547C43.3714 34.7995 44.0018 36.3215 44.0018 37.9403C44.0016 39.1955 45.0191 40.2132 46.2743 40.2132C46.2745 40.2132 46.2745 40.2132 46.2745 40.2132C47.5295 40.2132 48.5471 39.1958 48.5473 37.9406C48.5474 35.1075 47.4442 32.4438 45.4409 30.4405Z" fill="white"/>
<path d="M68.3343 65.1203L52.8376 49.6236C55.3689 46.403 56.8804 42.3447 56.8804 37.9401C56.8803 27.4966 48.3838 19 37.94 19C37.9397 19 37.94 19 37.9397 19C32.8809 19 28.1244 20.9702 24.5475 24.5473C20.97 28.1247 19 32.881 19 37.9401C19 48.3838 27.4965 56.8803 37.94 56.8803C42.3446 56.8803 46.403 55.3689 49.6235 52.8377L65.1201 68.3344C65.5639 68.7781 66.1456 69 66.7272 69C67.3089 69 67.8906 68.7782 68.3342 68.3343C69.222 67.4469 69.222 66.0077 68.3343 65.1203ZM37.94 52.3349C30.0029 52.3349 23.5455 45.8774 23.5455 37.9401C23.5455 34.0951 25.0428 30.4803 27.7615 27.7615C30.4803 25.0426 34.095 23.5455 37.94 23.5455C45.8774 23.5455 52.3349 30.0029 52.3349 37.9402C52.3349 45.8775 45.8774 52.3349 37.94 52.3349Z" fill="white"/>
</svg>
