<svg width="88" height="88" viewBox="0 0 88 88" fill="none" xmlns="http://www.w3.org/2000/svg">
<rect width="88" height="88" rx="8" fill="black"/>
<path d="M68.9613 49.6709L67.4185 42.0595L61.7848 33.3916H51.5273L54.7045 52.0263H58.4564C58.2762 52.4661 58.1728 52.9463 58.1728 53.4519C58.1728 55.5266 59.8544 57.2081 61.9283 57.2081C64.0031 57.2081 65.6846 55.5266 65.6846 53.4519C65.6846 52.9463 65.5813 52.4661 65.4004 52.0263H67.0353C67.625 52.0263 68.1836 51.7618 68.5569 51.305C68.9296 50.849 69.0787 50.2486 68.9613 49.6709ZM57.3335 36.8594H59.9032L63.2394 41.9909H58.2089L57.3335 36.8594ZM63.5455 53.4519C63.5455 54.345 62.8222 55.0684 61.9283 55.0684C61.0359 55.0684 60.3119 54.345 60.3119 53.4519C60.3119 52.8304 60.6669 52.2972 61.1803 52.0263H62.6772C63.1913 52.2972 63.5455 52.8303 63.5455 53.4519Z" fill="white"/>
<path d="M49.3778 31.7454C49.2838 31.1945 48.8064 30.7915 48.2472 30.7915H22.46C21.7168 30.7915 21.115 31.3939 21.115 32.1357C21.115 32.8789 21.7168 33.4807 22.46 33.4807H28.7356C29.4788 33.4807 30.0806 34.0832 30.0806 34.8257C30.0806 35.5682 29.4788 36.1706 28.7356 36.1706H20.3449C19.6024 36.1706 19 36.773 19 37.5155C19 38.258 19.6024 38.8597 20.3449 38.8597H31.7818C32.4381 38.8597 32.9705 39.3929 32.9705 40.0491C32.9705 40.7054 32.4381 41.2378 31.7818 41.2378H25.7056C24.9624 41.2378 24.3606 41.8403 24.3606 42.5828C24.3606 43.3252 24.9624 43.9277 25.7056 43.9277H30.1838C30.8406 43.9277 31.3731 44.4602 31.3731 45.1164C31.3731 45.7726 30.8406 46.3051 30.1838 46.3051H24.0015C23.2583 46.3051 22.6565 46.9075 22.6565 47.65C22.6565 48.3925 23.2583 48.9949 24.0015 48.9949H32.4989L33.0349 52.0264H36.113C35.9319 52.4662 35.8287 52.9464 35.8287 53.452C35.8287 55.5267 37.5102 57.2082 39.585 57.2082C41.6589 57.2082 43.3404 55.5267 43.3404 53.452C43.3404 52.9464 43.2372 52.4662 43.0562 52.0264H52.8257L49.3778 31.7454ZM41.2014 53.4519C41.2014 54.345 40.478 55.0684 39.5849 55.0684C38.6911 55.0684 37.9677 54.345 37.9677 53.4519C37.9677 52.8304 38.3219 52.2972 38.836 52.0263H40.333C40.8471 52.2972 41.2014 52.8303 41.2014 53.4519Z" fill="white"/>
</svg>
