<svg width="50" height="50" viewBox="0 0 50 50" fill="none" xmlns="http://www.w3.org/2000/svg">
<path d="M45.3129 18.3687H42.9285C42.7582 17.9078 42.5707 17.4562 42.3645 17.0094L44.0629 15.3281C44.752 14.7203 45.1832 13.8344 45.1832 12.8484C45.1832 11.9969 44.8613 11.2203 44.3316 10.6344L44.3348 10.6375L39.3691 5.67188C38.7863 5.14375 38.0098 4.82187 37.1582 4.82187C36.1707 4.82187 35.2848 5.25625 34.6785 5.94375L34.6754 5.94688L32.9863 7.63438C32.541 7.42969 32.091 7.24219 31.6301 7.07188L31.6426 4.6875C31.6473 4.62188 31.6504 4.54531 31.6504 4.46719C31.6504 2.70469 30.2691 1.26562 28.5301 1.17188H28.5223H21.4973C19.7488 1.26406 18.366 2.70469 18.366 4.46875C18.366 4.54531 18.3691 4.62188 18.3738 4.69844V4.6875V7.06875C17.9129 7.23906 17.4613 7.42656 17.0145 7.63281L15.3363 5.93906C14.7285 5.24688 13.841 4.81094 12.8535 4.81094C12.002 4.81094 11.2254 5.13281 10.641 5.6625L10.6441 5.65938L5.67695 10.6266C5.14883 11.2094 4.82695 11.9859 4.82695 12.8375C4.82695 13.8266 5.26133 14.7125 5.95039 15.3172L5.95352 15.3203L7.63789 17.0062C7.43164 17.4547 7.24414 17.9062 7.07227 18.3687L4.68945 18.3578C4.62383 18.3531 4.54727 18.35 4.4707 18.35C2.7082 18.35 1.26758 19.7328 1.17383 21.4719V21.4797V28.5031C1.26602 30.2516 2.7082 31.6359 4.47227 31.6359C4.54883 31.6359 4.62539 31.6328 4.70039 31.6281H4.68945H7.07227C7.24258 32.0891 7.43008 32.5406 7.63633 32.9875L5.94258 34.6609C5.25039 35.2703 4.81602 36.1578 4.81602 37.1484C4.81602 38 5.13789 38.7781 5.66758 39.3641L5.66445 39.3609L10.6316 44.3266C11.1613 44.8531 11.891 45.1781 12.6973 45.1781C12.7082 45.1781 12.7191 45.1781 12.7301 45.1781H12.7285C13.7488 45.1578 14.666 44.7297 15.3254 44.05L15.327 44.0484L17.0129 42.3625C17.4613 42.5687 17.9145 42.7563 18.377 42.9281L18.366 45.3094C18.3613 45.375 18.3582 45.4516 18.3582 45.5281C18.3582 47.2906 19.741 48.7312 21.4801 48.825H21.4879H28.5129C30.2598 48.7312 31.6426 47.2922 31.6426 45.5297C31.6426 45.4516 31.6395 45.375 31.6348 45.3V45.3109V42.9266C32.0973 42.7547 32.5488 42.5672 32.9973 42.3609L34.6676 44.0469C35.3285 44.7266 36.2441 45.1547 37.2613 45.1766H37.2645H37.2676C37.277 45.1766 37.2895 45.1766 37.3004 45.1766C38.1051 45.1766 38.8348 44.8531 39.3676 44.3312L44.3316 39.3672C44.8551 38.8375 45.177 38.1094 45.177 37.3047C45.177 37.2906 45.177 37.2766 45.177 37.2609C45.1566 36.2438 44.7316 35.3312 44.0551 34.6719L42.366 32.9828C42.5707 32.5375 42.7582 32.0875 42.9285 31.6266L45.3113 31.6375C45.377 31.6422 45.452 31.6453 45.5285 31.6453C47.2926 31.6453 48.7332 30.2625 48.8254 28.5219V28.5141V21.4906C48.7316 19.7422 47.2926 18.3594 45.5285 18.3594C45.452 18.3594 45.3754 18.3625 45.2988 18.3672H45.3098L45.3129 18.3687ZM44.9223 27.7328L41.5441 27.7156C41.5035 27.7156 41.4691 27.7359 41.4285 27.7391C41.2832 27.7531 41.1488 27.7797 41.0207 27.8219L41.0332 27.8188C40.5488 27.925 40.1504 28.2297 39.9223 28.6422L39.9176 28.65C39.8426 28.7609 39.7754 28.8875 39.7238 29.0219L39.7191 29.0344C39.7066 29.0719 39.677 29.0984 39.666 29.1375C39.3066 30.3938 38.8426 31.4859 38.2629 32.5047L38.302 32.4297C38.2801 32.4687 38.2816 32.5141 38.2613 32.5547C38.216 32.6531 38.1785 32.7703 38.1504 32.8906L38.1488 32.9031C38.1129 33.0156 38.0863 33.1469 38.0738 33.2812V33.2891C38.0707 33.3312 38.0676 33.3797 38.0676 33.4281C38.0676 33.7547 38.1629 34.0594 38.327 34.3156L38.3223 34.3094C38.3926 34.4469 38.4723 34.5641 38.5629 34.6719L38.5613 34.6688C38.5879 34.6984 38.5957 34.7359 38.6238 34.7641L41.0129 37.1562L37.1551 41.0109L34.7863 38.6219C34.7551 38.5891 34.7113 38.5797 34.6785 38.55C34.5848 38.4719 34.4785 38.4 34.366 38.3391L34.3566 38.3344C34.052 38.1641 33.6863 38.0641 33.2988 38.0641C33.2957 38.0641 33.2926 38.0641 33.2895 38.0641C33.1707 38.0766 33.0629 38.0984 32.9598 38.1266L32.9738 38.1234C32.8145 38.1547 32.6738 38.2016 32.5426 38.2625L32.5535 38.2578C32.5191 38.275 32.4801 38.2734 32.4457 38.2922C31.4988 38.8328 30.4035 39.2984 29.2535 39.6344L29.1441 39.6609C29.102 39.6734 29.0738 39.7031 29.0332 39.7188C28.902 39.7703 28.7879 39.8297 28.6832 39.9L28.6895 39.8953C28.5723 39.9594 28.4723 40.0281 28.3785 40.1062L28.3816 40.1031C28.2988 40.1844 28.2223 40.275 28.1551 40.3703L28.1504 40.3766C27.9895 40.5531 27.8754 40.7734 27.8285 41.0188L27.827 41.0266C27.7895 41.1422 27.7598 41.2766 27.7473 41.4156V41.4234C27.7441 41.4641 27.7238 41.4984 27.7238 41.5406L27.7223 44.9187H22.2676L22.2848 41.55C22.2848 41.5062 22.2629 41.4688 22.2598 41.4266C22.2473 41.2828 22.2191 41.15 22.1785 41.0234L22.1816 41.0359C22.0754 40.5469 21.7676 40.1453 21.352 39.9156L21.3426 39.9109C21.2332 39.8375 21.1082 39.7719 20.9754 39.7203L20.9629 39.7156C20.9254 39.7031 20.8973 39.6734 20.8582 39.6625C19.5988 39.3031 18.5035 38.8375 17.4816 38.2562L17.5566 38.2953C17.5207 38.275 17.4785 38.2766 17.4426 38.2594C17.3301 38.2078 17.1988 38.1641 17.0613 38.1359L17.0488 38.1344C16.9051 38.0891 16.7395 38.0641 16.5676 38.0641C16.2223 38.0641 15.902 38.1672 15.6348 38.3453L15.641 38.3422C15.5223 38.4047 15.4207 38.4734 15.327 38.5516L15.3301 38.5484C15.2973 38.5781 15.2551 38.5875 15.2238 38.6187L12.8348 41.0078L8.97539 37.15L11.3691 34.7812C11.4004 34.75 11.4113 34.7078 11.4395 34.6766C11.5223 34.5781 11.5973 34.4672 11.6613 34.35L11.666 34.3406C11.7238 34.25 11.777 34.1469 11.8207 34.0375L11.8254 34.025C11.8848 33.8062 11.9223 33.5547 11.9285 33.2953V33.2906C11.916 33.1609 11.8926 33.0438 11.8598 32.9297L11.8629 32.9437C11.8316 32.7969 11.7895 32.6672 11.7332 32.5453L11.7379 32.5563C11.7191 32.5172 11.7207 32.475 11.6988 32.4375C11.1566 31.4922 10.691 30.3984 10.3582 29.2484L10.3316 29.1422C10.3207 29.1016 10.2895 29.0719 10.2754 29.0328C10.2223 28.8984 10.1629 28.7828 10.091 28.6766L10.0957 28.6844C10.0332 28.5688 9.96445 28.4687 9.88789 28.3766L9.89102 28.3797C9.80977 28.2969 9.7207 28.2219 9.62695 28.1547L9.6207 28.15C9.52695 28.0703 9.4207 27.9984 9.3082 27.9375L9.29883 27.9328C9.20977 27.8922 9.10195 27.8563 8.99258 27.8297L8.98008 27.8266C8.85977 27.7859 8.71914 27.7563 8.57539 27.7438H8.56758C8.52695 27.7406 8.49414 27.7203 8.45352 27.7203L5.07539 27.7188V22.2625L8.45352 22.2797C8.70352 22.2766 8.93945 22.225 9.15664 22.1359L9.14414 22.1406C9.22852 22.1031 9.29883 22.0656 9.36602 22.0234L9.3582 22.0281C9.49883 21.9547 9.6207 21.8719 9.73164 21.7781L9.72852 21.7797C9.7957 21.7188 9.85664 21.6562 9.91289 21.5891L9.91602 21.5859C10.0035 21.4844 10.0816 21.3703 10.1457 21.25L10.1504 21.2391C10.1926 21.1656 10.2348 21.0797 10.2691 20.9906L10.2738 20.9781C10.2895 20.9344 10.3191 20.9 10.3316 20.8562C10.691 19.5984 11.1551 18.5031 11.7363 17.4828L11.6973 17.5578C11.7191 17.5203 11.7176 17.4766 11.7363 17.4391C11.7848 17.3344 11.8254 17.2094 11.8535 17.0813L11.8551 17.0687C11.8863 16.9344 11.9051 16.7797 11.9051 16.6203C11.9051 16.125 11.7285 15.6719 11.4363 15.3172L11.4395 15.3203C11.4129 15.2891 11.4035 15.25 11.3738 15.2219L8.98789 12.8328L12.8457 8.975L15.2176 11.3672C15.3035 11.4375 15.3988 11.5031 15.4988 11.5578L15.5082 11.5625C15.5738 11.6141 15.6473 11.6641 15.7238 11.7094L15.7332 11.7141C15.9832 11.8516 16.2801 11.9359 16.5941 11.9453H16.5973L16.6051 11.9469C16.6238 11.9469 16.641 11.9328 16.6582 11.9328C16.9488 11.9203 17.2191 11.8453 17.4598 11.7219L17.4488 11.7266C17.4832 11.7094 17.5223 11.7172 17.5582 11.6984C18.5035 11.1578 19.5973 10.6906 20.7473 10.3578L20.8551 10.3313C20.8941 10.3203 20.9207 10.2906 20.9582 10.2781C21.1004 10.2234 21.2238 10.1594 21.3379 10.0828L21.3316 10.0875C21.4395 10.0281 21.5316 9.96406 21.6176 9.89375L21.6145 9.89688C21.7051 9.80937 21.7863 9.71406 21.8582 9.61094L21.8629 9.60469C21.9348 9.51719 22.002 9.41875 22.0598 9.31563L22.0645 9.30625C22.1082 9.20937 22.1473 9.09531 22.1738 8.97812L22.177 8.96562C22.2145 8.85156 22.2426 8.71875 22.2551 8.57969V8.57188C22.2582 8.52969 22.2785 8.49531 22.2785 8.45312L22.2801 5.075H27.7348L27.7176 8.44375C27.7176 8.4875 27.7395 8.52344 27.741 8.56719C27.7535 8.7125 27.7816 8.84531 27.8223 8.97344L27.8191 8.96094C27.8488 9.09219 27.8879 9.20625 27.9363 9.31563L27.9316 9.30313C27.9941 9.41719 28.0598 9.51562 28.1348 9.60625L28.1316 9.60312C28.2066 9.7125 28.2895 9.80781 28.3785 9.89531C28.4613 9.96406 28.5535 10.0266 28.6504 10.0828L28.6598 10.0875C28.766 10.1594 28.8895 10.2234 29.0191 10.2734L29.0316 10.2781C29.0707 10.2922 29.0988 10.3219 29.1395 10.3328C30.3957 10.6906 31.4879 11.1562 32.5066 11.7375L32.4332 11.6984C32.4676 11.7172 32.5051 11.7094 32.5395 11.7266C32.7691 11.8453 33.0395 11.9203 33.3254 11.9328H33.3301C33.3488 11.9328 33.3676 11.9469 33.3863 11.9469L33.4301 11.9344C33.7316 11.9219 34.0113 11.8422 34.2598 11.7109L34.2488 11.7156C34.341 11.6641 34.4191 11.6125 34.4926 11.5531L34.4879 11.5562C34.5941 11.4984 34.6863 11.4375 34.7707 11.3687L34.7676 11.3719L37.1598 8.98438L41.0176 12.8438L38.6254 15.2125C38.5941 15.2437 38.5832 15.2859 38.5535 15.3187C38.4707 15.4172 38.3957 15.5281 38.3316 15.6453L38.327 15.6547C38.1957 15.8469 38.1113 16.0797 38.0957 16.3328V16.3359C38.0754 16.4234 38.0645 16.525 38.0645 16.6281C38.0645 16.7797 38.0895 16.925 38.1348 17.0609L38.1316 17.0516C38.1629 17.1984 38.2051 17.3266 38.2613 17.4484L38.2566 17.4375C38.2754 17.4766 38.2738 17.5203 38.2957 17.5594C38.8379 18.5031 39.3035 19.5953 39.6363 20.7437L39.6629 20.85C39.6754 20.8969 39.7066 20.9312 39.7223 20.975C39.7598 21.0719 39.7988 21.1516 39.8426 21.2297L39.8379 21.2203C40.1676 21.8406 40.8051 22.2594 41.541 22.2734L44.9207 22.275L44.9223 27.7328ZM25.0004 16.7969C20.4707 16.7969 16.7973 20.4703 16.7973 25C16.7973 29.5297 20.4707 33.2031 25.0004 33.2031C29.5301 33.2031 33.2035 29.5297 33.2035 25C33.1973 20.4719 29.5285 16.8031 25.0004 16.7969ZM25.0004 29.2969C22.627 29.2969 20.7035 27.3734 20.7035 25C20.7035 22.6266 22.627 20.7031 25.0004 20.7031C27.3738 20.7031 29.2973 22.6266 29.2973 25C29.2941 27.3719 27.3723 29.2938 25.0004 29.2969Z" fill="white"/>
</svg>
