<svg width="88" height="88" viewBox="0 0 88 88" fill="none" xmlns="http://www.w3.org/2000/svg">
<rect width="88" height="88" rx="8" fill="black"/>
<path d="M64.3129 37.3687H61.9285C61.7582 36.9078 61.5707 36.4562 61.3645 36.0094L63.0629 34.3281C63.752 33.7203 64.1832 32.8344 64.1832 31.8484C64.1832 30.9969 63.8613 30.2203 63.3316 29.6344L63.3348 29.6375L58.3691 24.6719C57.7863 24.1438 57.0098 23.8219 56.1582 23.8219C55.1707 23.8219 54.2848 24.2562 53.6785 24.9437L53.6754 24.9469L51.9863 26.6344C51.541 26.4297 51.091 26.2422 50.6301 26.0719L50.6426 23.6875C50.6473 23.6219 50.6504 23.5453 50.6504 23.4672C50.6504 21.7047 49.2691 20.2656 47.5301 20.1719H47.5223H40.4973C38.7488 20.2641 37.366 21.7047 37.366 23.4687C37.366 23.5453 37.3691 23.6219 37.3738 23.6984V23.6875V26.0688C36.9129 26.2391 36.4613 26.4266 36.0145 26.6328L34.3363 24.9391C33.7285 24.2469 32.841 23.8109 31.8535 23.8109C31.002 23.8109 30.2254 24.1328 29.641 24.6625L29.6441 24.6594L24.677 29.6266C24.1488 30.2094 23.827 30.9859 23.827 31.8375C23.827 32.8266 24.2613 33.7125 24.9504 34.3172L24.9535 34.3203L26.6379 36.0062C26.4316 36.4547 26.2441 36.9062 26.0723 37.3687L23.6895 37.3578C23.6238 37.3531 23.5473 37.35 23.4707 37.35C21.7082 37.35 20.2676 38.7328 20.1738 40.4719V40.4797V47.5031C20.266 49.2516 21.7082 50.6359 23.4723 50.6359C23.5488 50.6359 23.6254 50.6328 23.7004 50.6281H23.6895H26.0723C26.2426 51.0891 26.4301 51.5406 26.6363 51.9875L24.9426 53.6609C24.2504 54.2703 23.816 55.1578 23.816 56.1484C23.816 57 24.1379 57.7781 24.6676 58.3641L24.6645 58.3609L29.6316 63.3266C30.1613 63.8531 30.891 64.1781 31.6973 64.1781C31.7082 64.1781 31.7191 64.1781 31.7301 64.1781H31.7285C32.7488 64.1578 33.666 63.7297 34.3254 63.05L34.327 63.0484L36.0129 61.3625C36.4613 61.5687 36.9145 61.7563 37.377 61.9281L37.366 64.3094C37.3613 64.375 37.3582 64.4516 37.3582 64.5281C37.3582 66.2906 38.741 67.7312 40.4801 67.825H40.4879H47.5129C49.2598 67.7312 50.6426 66.2922 50.6426 64.5297C50.6426 64.4516 50.6395 64.375 50.6348 64.3V64.3109V61.9266C51.0973 61.7547 51.5488 61.5672 51.9973 61.3609L53.6676 63.0469C54.3285 63.7266 55.2441 64.1547 56.2613 64.1766H56.2645H56.2676C56.277 64.1766 56.2895 64.1766 56.3004 64.1766C57.1051 64.1766 57.8348 63.8531 58.3676 63.3312L63.3316 58.3672C63.8551 57.8375 64.177 57.1094 64.177 56.3047C64.177 56.2906 64.177 56.2766 64.177 56.2609C64.1566 55.2438 63.7316 54.3312 63.0551 53.6719L61.366 51.9828C61.5707 51.5375 61.7582 51.0875 61.9285 50.6266L64.3113 50.6375C64.377 50.6422 64.452 50.6453 64.5285 50.6453C66.2926 50.6453 67.7332 49.2625 67.8254 47.5219V47.5141V40.4906C67.7316 38.7422 66.2926 37.3594 64.5285 37.3594C64.452 37.3594 64.3754 37.3625 64.2988 37.3672H64.3098L64.3129 37.3687ZM63.9223 46.7328L60.5441 46.7156C60.5035 46.7156 60.4691 46.7359 60.4285 46.7391C60.2832 46.7531 60.1488 46.7797 60.0207 46.8219L60.0332 46.8188C59.5488 46.925 59.1504 47.2297 58.9223 47.6422L58.9176 47.65C58.8426 47.7609 58.7754 47.8875 58.7238 48.0219L58.7191 48.0344C58.7066 48.0719 58.677 48.0984 58.666 48.1375C58.3066 49.3938 57.8426 50.4859 57.2629 51.5047L57.302 51.4297C57.2801 51.4687 57.2816 51.5141 57.2613 51.5547C57.216 51.6531 57.1785 51.7703 57.1504 51.8906L57.1488 51.9031C57.1129 52.0156 57.0863 52.1469 57.0738 52.2812V52.2891C57.0707 52.3312 57.0676 52.3797 57.0676 52.4281C57.0676 52.7547 57.1629 53.0594 57.327 53.3156L57.3223 53.3094C57.3926 53.4469 57.4723 53.5641 57.5629 53.6719L57.5613 53.6688C57.5879 53.6984 57.5957 53.7359 57.6238 53.7641L60.0129 56.1562L56.1551 60.0109L53.7863 57.6219C53.7551 57.5891 53.7113 57.5797 53.6785 57.55C53.5848 57.4719 53.4785 57.4 53.366 57.3391L53.3566 57.3344C53.052 57.1641 52.6863 57.0641 52.2988 57.0641C52.2957 57.0641 52.2926 57.0641 52.2895 57.0641C52.1707 57.0766 52.0629 57.0984 51.9598 57.1266L51.9738 57.1234C51.8145 57.1547 51.6738 57.2016 51.5426 57.2625L51.5535 57.2578C51.5191 57.275 51.4801 57.2734 51.4457 57.2922C50.4988 57.8328 49.4035 58.2984 48.2535 58.6344L48.1441 58.6609C48.102 58.6734 48.0738 58.7031 48.0332 58.7188C47.902 58.7703 47.7879 58.8297 47.6832 58.9L47.6895 58.8953C47.5723 58.9594 47.4723 59.0281 47.3785 59.1062L47.3816 59.1031C47.2988 59.1844 47.2223 59.275 47.1551 59.3703L47.1504 59.3766C46.9895 59.5531 46.8754 59.7734 46.8285 60.0188L46.827 60.0266C46.7895 60.1422 46.7598 60.2766 46.7473 60.4156V60.4234C46.7441 60.4641 46.7238 60.4984 46.7238 60.5406L46.7223 63.9187H41.2676L41.2848 60.55C41.2848 60.5062 41.2629 60.4688 41.2598 60.4266C41.2473 60.2828 41.2191 60.15 41.1785 60.0234L41.1816 60.0359C41.0754 59.5469 40.7676 59.1453 40.352 58.9156L40.3426 58.9109C40.2332 58.8375 40.1082 58.7719 39.9754 58.7203L39.9629 58.7156C39.9254 58.7031 39.8973 58.6734 39.8582 58.6625C38.5988 58.3031 37.5035 57.8375 36.4816 57.2562L36.5566 57.2953C36.5207 57.275 36.4785 57.2766 36.4426 57.2594C36.3301 57.2078 36.1988 57.1641 36.0613 57.1359L36.0488 57.1344C35.9051 57.0891 35.7395 57.0641 35.5676 57.0641C35.2223 57.0641 34.902 57.1672 34.6348 57.3453L34.641 57.3422C34.5223 57.4047 34.4207 57.4734 34.327 57.5516L34.3301 57.5484C34.2973 57.5781 34.2551 57.5875 34.2238 57.6187L31.8348 60.0078L27.9754 56.15L30.3691 53.7812C30.4004 53.75 30.4113 53.7078 30.4395 53.6766C30.5223 53.5781 30.5973 53.4672 30.6613 53.35L30.666 53.3406C30.7238 53.25 30.777 53.1469 30.8207 53.0375L30.8254 53.025C30.8848 52.8062 30.9223 52.5547 30.9285 52.2953V52.2906C30.916 52.1609 30.8926 52.0438 30.8598 51.9297L30.8629 51.9437C30.8316 51.7969 30.7895 51.6672 30.7332 51.5453L30.7379 51.5563C30.7191 51.5172 30.7207 51.475 30.6988 51.4375C30.1566 50.4922 29.691 49.3984 29.3582 48.2484L29.3316 48.1422C29.3207 48.1016 29.2895 48.0719 29.2754 48.0328C29.2223 47.8984 29.1629 47.7828 29.091 47.6766L29.0957 47.6844C29.0332 47.5688 28.9645 47.4687 28.8879 47.3766L28.891 47.3797C28.8098 47.2969 28.7207 47.2219 28.627 47.1547L28.6207 47.15C28.527 47.0703 28.4207 46.9984 28.3082 46.9375L28.2988 46.9328C28.2098 46.8922 28.102 46.8563 27.9926 46.8297L27.9801 46.8266C27.8598 46.7859 27.7191 46.7563 27.5754 46.7438H27.5676C27.527 46.7406 27.4941 46.7203 27.4535 46.7203L24.0754 46.7188V41.2625L27.4535 41.2797C27.7035 41.2766 27.9395 41.225 28.1566 41.1359L28.1441 41.1406C28.2285 41.1031 28.2988 41.0656 28.366 41.0234L28.3582 41.0281C28.4988 40.9547 28.6207 40.8719 28.7316 40.7781L28.7285 40.7797C28.7957 40.7188 28.8566 40.6562 28.9129 40.5891L28.916 40.5859C29.0035 40.4844 29.0816 40.3703 29.1457 40.25L29.1504 40.2391C29.1926 40.1656 29.2348 40.0797 29.2691 39.9906L29.2738 39.9781C29.2895 39.9344 29.3191 39.9 29.3316 39.8562C29.691 38.5984 30.1551 37.5031 30.7363 36.4828L30.6973 36.5578C30.7191 36.5203 30.7176 36.4766 30.7363 36.4391C30.7848 36.3344 30.8254 36.2094 30.8535 36.0813L30.8551 36.0687C30.8863 35.9344 30.9051 35.7797 30.9051 35.6203C30.9051 35.125 30.7285 34.6719 30.4363 34.3172L30.4395 34.3203C30.4129 34.2891 30.4035 34.25 30.3738 34.2219L27.9879 31.8328L31.8457 27.975L34.2176 30.3672C34.3035 30.4375 34.3988 30.5031 34.4988 30.5578L34.5082 30.5625C34.5738 30.6141 34.6473 30.6641 34.7238 30.7094L34.7332 30.7141C34.9832 30.8516 35.2801 30.9359 35.5941 30.9453H35.5973L35.6051 30.9469C35.6238 30.9469 35.641 30.9328 35.6582 30.9328C35.9488 30.9203 36.2191 30.8453 36.4598 30.7219L36.4488 30.7266C36.4832 30.7094 36.5223 30.7172 36.5582 30.6984C37.5035 30.1578 38.5973 29.6906 39.7473 29.3578L39.8551 29.3313C39.8941 29.3203 39.9207 29.2906 39.9582 29.2781C40.1004 29.2234 40.2238 29.1594 40.3379 29.0828L40.3316 29.0875C40.4395 29.0281 40.5316 28.9641 40.6176 28.8937L40.6145 28.8969C40.7051 28.8094 40.7863 28.7141 40.8582 28.6109L40.8629 28.6047C40.9348 28.5172 41.002 28.4187 41.0598 28.3156L41.0645 28.3062C41.1082 28.2094 41.1473 28.0953 41.1738 27.9781L41.177 27.9656C41.2145 27.8516 41.2426 27.7188 41.2551 27.5797V27.5719C41.2582 27.5297 41.2785 27.4953 41.2785 27.4531L41.2801 24.075H46.7348L46.7176 27.4437C46.7176 27.4875 46.7395 27.5234 46.741 27.5672C46.7535 27.7125 46.7816 27.8453 46.8223 27.9734L46.8191 27.9609C46.8488 28.0922 46.8879 28.2063 46.9363 28.3156L46.9316 28.3031C46.9941 28.4172 47.0598 28.5156 47.1348 28.6062L47.1316 28.6031C47.2066 28.7125 47.2895 28.8078 47.3785 28.8953C47.4613 28.9641 47.5535 29.0266 47.6504 29.0828L47.6598 29.0875C47.766 29.1594 47.8895 29.2234 48.0191 29.2734L48.0316 29.2781C48.0707 29.2922 48.0988 29.3219 48.1395 29.3328C49.3957 29.6906 50.4879 30.1562 51.5066 30.7375L51.4332 30.6984C51.4676 30.7172 51.5051 30.7094 51.5395 30.7266C51.7691 30.8453 52.0395 30.9203 52.3254 30.9328H52.3301C52.3488 30.9328 52.3676 30.9469 52.3863 30.9469L52.4301 30.9344C52.7316 30.9219 53.0113 30.8422 53.2598 30.7109L53.2488 30.7156C53.341 30.6641 53.4191 30.6125 53.4926 30.5531L53.4879 30.5562C53.5941 30.4984 53.6863 30.4375 53.7707 30.3687L53.7676 30.3719L56.1598 27.9844L60.0176 31.8438L57.6254 34.2125C57.5941 34.2437 57.5832 34.2859 57.5535 34.3187C57.4707 34.4172 57.3957 34.5281 57.3316 34.6453L57.327 34.6547C57.1957 34.8469 57.1113 35.0797 57.0957 35.3328V35.3359C57.0754 35.4234 57.0645 35.525 57.0645 35.6281C57.0645 35.7797 57.0895 35.925 57.1348 36.0609L57.1316 36.0516C57.1629 36.1984 57.2051 36.3266 57.2613 36.4484L57.2566 36.4375C57.2754 36.4766 57.2738 36.5203 57.2957 36.5594C57.8379 37.5031 58.3035 38.5953 58.6363 39.7437L58.6629 39.85C58.6754 39.8969 58.7066 39.9312 58.7223 39.975C58.7598 40.0719 58.7988 40.1516 58.8426 40.2297L58.8379 40.2203C59.1676 40.8406 59.8051 41.2594 60.541 41.2734L63.9207 41.275L63.9223 46.7328ZM44.0004 35.7969C39.4707 35.7969 35.7973 39.4703 35.7973 44C35.7973 48.5297 39.4707 52.2031 44.0004 52.2031C48.5301 52.2031 52.2035 48.5297 52.2035 44C52.1973 39.4719 48.5285 35.8031 44.0004 35.7969ZM44.0004 48.2969C41.627 48.2969 39.7035 46.3734 39.7035 44C39.7035 41.6266 41.627 39.7031 44.0004 39.7031C46.3738 39.7031 48.2973 41.6266 48.2973 44C48.2941 46.3719 46.3723 48.2938 44.0004 48.2969Z" fill="white"/>
</svg>
