<svg width="88" height="88" viewBox="0 0 88 88" fill="none" xmlns="http://www.w3.org/2000/svg">
<rect width="88" height="88" rx="8" fill="black"/>
<path d="M26.2812 41.7812H24.625C23.7108 41.7812 22.9688 41.0112 22.9688 40.0625V34.9062C22.9688 33.9575 23.7108 33.1875 24.625 33.1875H26.2812V41.7812ZM52.7812 34.9062H36.2188V40.0625H52.7812V34.9062ZM56.0938 33.1875V41.7812C56.0938 42.7283 55.3501 43.5 54.4375 43.5H34.5625C33.6499 43.5 32.9062 42.7283 32.9062 41.7812V33.1875C32.9062 32.2405 33.6499 31.4688 34.5625 31.4688H54.4375C55.3501 31.4688 56.0938 32.2405 56.0938 33.1875ZM54.4375 33.1875H34.5625V41.7812H54.4375V33.1875ZM61.0625 46.9719C61.0625 49.2355 60.8472 51.4939 60.4199 53.7128L58.55 63.4169C58.0846 65.8283 56.0457 67.5625 53.6773 67.5625H35.3227C32.9543 67.5625 30.9154 65.8283 30.45 63.4169L28.5801 53.7128C28.1528 51.4922 27.9375 49.2355 27.9375 46.9719V28.0312C27.9375 23.2858 31.6458 19.4375 36.2188 19.4375H52.7812C57.3542 19.4375 61.0625 23.2858 61.0625 28.0312V46.9719ZM57.75 33.1875C57.75 31.2917 56.2643 29.75 54.4375 29.75H34.5625C32.7357 29.75 31.25 31.2917 31.25 33.1875V41.7812C31.25 43.677 32.7357 45.2188 34.5625 45.2188H54.4375C56.2643 45.2188 57.75 43.677 57.75 41.7812V33.1875ZM64.375 33.1875H62.7188V41.7812H64.375C65.2892 41.7812 66.0312 41.0112 66.0312 40.0625V34.9062C66.0312 33.9575 65.2892 33.1875 64.375 33.1875Z" fill="white"/>
</svg>
