<svg width="88" height="88" viewBox="0 0 88 88" fill="none" xmlns="http://www.w3.org/2000/svg">
<rect width="88" height="88" rx="8" fill="black"/>
<path fill-rule="evenodd" clip-rule="evenodd" d="M45.011 21.3457C44.3818 20.9961 43.6168 20.9961 42.9877 21.3457L24.2376 31.7623L24.2229 31.7873L24.1928 31.7877C23.5566 32.162 23.166 32.8453 23.166 33.5835V54.4166C23.166 55.1733 23.5762 55.8704 24.2376 56.2377L42.9623 66.6404C43.595 67.0035 44.3725 67.0095 45.011 66.6548L63.761 56.2381C64.4225 55.8706 64.8327 55.1735 64.8327 54.4168V33.5835C64.8327 32.8453 64.4421 32.1623 63.8058 31.7879C63.7902 31.7787 63.7746 31.7698 63.7587 31.761L45.011 21.3457ZM29.5394 33.5834L43.9996 41.6168L49.1775 38.7401L35.1305 30.4772L29.5394 33.5834ZM53.4039 36.3922L58.4596 33.5835L43.9993 25.5501L39.3569 28.1292L53.4039 36.3922ZM27.3327 53.1908V37.1241L41.916 45.226V61.2927L27.3327 53.1908ZM46.0827 61.2929V45.226L60.666 37.1241V53.191L46.0827 61.2929Z" fill="white"/>
</svg>
