<svg width="48" height="49" viewBox="0 0 48 49" fill="none" xmlns="http://www.w3.org/2000/svg">
<rect width="48" height="49" rx="3" fill="black"/>
<path d="M5.15412 30V28.0227L5.48366 27.9943C5.90791 27.9602 6.25071 27.7992 6.51207 27.5114C6.77344 27.2197 6.96851 26.7557 7.0973 26.1193C7.22988 25.4792 7.3151 24.6193 7.35298 23.5398L7.54616 18.3636H15.4439V30H13.0518V20.3352H9.83026L9.64844 24.3864C9.58783 25.6894 9.43253 26.7538 9.18253 27.5795C8.93632 28.4053 8.54238 29.0152 8.00071 29.4091C7.46283 29.803 6.72609 30 5.79048 30H5.15412ZM21.37 30.1705C20.4875 30.1705 19.7242 29.983 19.0803 29.608C18.4401 29.2292 17.9458 28.7027 17.5973 28.0284C17.2488 27.3504 17.0746 26.5644 17.0746 25.6705C17.0746 24.7689 17.2488 23.9811 17.5973 23.3068C17.9458 22.6288 18.4401 22.1023 19.0803 21.7273C19.7242 21.3485 20.4875 21.1591 21.37 21.1591C22.2526 21.1591 23.014 21.3485 23.6541 21.7273C24.2981 22.1023 24.7943 22.6288 25.1428 23.3068C25.4912 23.9811 25.6655 24.7689 25.6655 25.6705C25.6655 26.5644 25.4912 27.3504 25.1428 28.0284C24.7943 28.7027 24.2981 29.2292 23.6541 29.608C23.014 29.983 22.2526 30.1705 21.37 30.1705ZM21.3814 28.2955C21.7829 28.2955 22.1181 28.1818 22.3871 27.9545C22.656 27.7235 22.8587 27.4091 22.995 27.0114C23.1352 26.6136 23.2053 26.161 23.2053 25.6534C23.2053 25.1458 23.1352 24.6932 22.995 24.2955C22.8587 23.8977 22.656 23.5833 22.3871 23.3523C22.1181 23.1212 21.7829 23.0057 21.3814 23.0057C20.9761 23.0057 20.6352 23.1212 20.3587 23.3523C20.0859 23.5833 19.8795 23.8977 19.7393 24.2955C19.603 24.6932 19.5348 25.1458 19.5348 25.6534C19.5348 26.161 19.603 26.6136 19.7393 27.0114C19.8795 27.4091 20.0859 27.7235 20.3587 27.9545C20.6352 28.1818 20.9761 28.2955 21.3814 28.2955ZM33.2166 21.2727V23.1761H29.5916V30H27.2393V21.2727H33.2166ZM38.3232 30.1705C37.4406 30.1705 36.6773 29.983 36.0334 29.608C35.3932 29.2292 34.8989 28.7027 34.5504 28.0284C34.2019 27.3504 34.0277 26.5644 34.0277 25.6705C34.0277 24.7689 34.2019 23.9811 34.5504 23.3068C34.8989 22.6288 35.3932 22.1023 36.0334 21.7273C36.6773 21.3485 37.4406 21.1591 38.3232 21.1591C39.2057 21.1591 39.9671 21.3485 40.6072 21.7273C41.2512 22.1023 41.7474 22.6288 42.0959 23.3068C42.4444 23.9811 42.6186 24.7689 42.6186 25.6705C42.6186 26.5644 42.4444 27.3504 42.0959 28.0284C41.7474 28.7027 41.2512 29.2292 40.6072 29.608C39.9671 29.983 39.2057 30.1705 38.3232 30.1705ZM38.3345 28.2955C38.736 28.2955 39.0713 28.1818 39.3402 27.9545C39.6091 27.7235 39.8118 27.4091 39.9482 27.0114C40.0883 26.6136 40.1584 26.161 40.1584 25.6534C40.1584 25.1458 40.0883 24.6932 39.9482 24.2955C39.8118 23.8977 39.6091 23.5833 39.3402 23.3523C39.0713 23.1212 38.736 23.0057 38.3345 23.0057C37.9292 23.0057 37.5883 23.1212 37.3118 23.3523C37.0391 23.5833 36.8326 23.8977 36.6925 24.2955C36.5561 24.6932 36.4879 25.1458 36.4879 25.6534C36.4879 26.161 36.5561 26.6136 36.6925 27.0114C36.8326 27.4091 37.0391 27.7235 37.3118 27.9545C37.5883 28.1818 37.9292 28.2955 38.3345 28.2955Z" fill="white"/>
</svg>
