<?xml version="1.0" standalone="no"?>
<!DOCTYPE svg PUBLIC "-//W3C//DTD SVG 20010904//EN"
 "http://www.w3.org/TR/2001/REC-SVG-20010904/DTD/svg10.dtd">
<svg version="1.0" xmlns="http://www.w3.org/2000/svg"
 width="58.000000pt" height="59.000000pt" viewBox="0 0 58.000000 59.000000"
 preserveAspectRatio="xMidYMid meet">

<g transform="translate(0.000000,59.000000) scale(0.100000,-0.100000)" fill="#000000" stroke="none">
<path d="M412 500 c-5 -14 -20 -47 -31 -74 -12 -27 -19 -51 -16 -54 7 -7 66 129 61 142 -2 6 -8 0 -14 -14z"/>
<path d="M68 374 c36 -25 23 -74 -20 -74 -12 0 -18 -8 -18 -24 0 -18 8 -27 30 -35 35 -12 41 -45 10 -61 -24 -13 -25 -28 -4 -51 13 -14 20 -15 34 -7 31 19
51 3 48 -39 -2 -28 1 -38 13 -41 12 -2 20 12 32 59 16 62 16 63 -8 91 -40 47 -43 103 -9 186 4 9 -12 12 -62 12 -65 0 -67 -1 -46 -16z"/>
<path d="M422 370 c7 -11 18 -21 26 -22 7 -2 -47 -75 -128 -171 -77 -93 -140
-172 -140 -175 0 -3 15 8 33 26 18 18 36 32 39 32 3 0 8 -13 12 -30 5 -25 10
-30 36 -30 27 0 30 3 30 29 0 40 36 53 61 22 20 -24 27 -25 52 -7 16 12 17 18
7 36 -10 18 -9 25 4 38 12 13 20 13 41 4 23 -11 27 -9 37 13 9 20 8 28 -5 43
-26 28 -21 52 13 63 22 8 30 17 30 35 0 16 -6 24 -18 24 -40 0 -54 40 -25 72
15 17 13 18 -51 18 -63 0 -66 -1 -54 -20z m18 -135 c-14 -43 -72 -95 -107 -95
-24 0 -25 2 -12 18 104 124 124 144 127 129 2 -10 -2 -33 -8 -52z"/>
<path d="M193 253 c9 -2 23 -2 30 0 6 3 -1 5 -18 5 -16 0 -22 -2 -12 -5z"/>
</g>
</svg>
