<svg width="665" height="664" viewBox="0 0 665 664" fill="none" xmlns="http://www.w3.org/2000/svg">
<path d="M128.593 90.6595L227.723 248.313L238.423 205.918L277.612 321.301L196.356 283.205L196.071 321.383L31.3286 255.322L123.164 252.768L61.197 163.69L156.478 214.593L128.596 90.6582L128.593 90.6595ZM392.06 132.403L433.56 151.086L411.676 223.265L642.277 327.054L625.983 363.206L395.385 259.375L355.952 323.532L291.999 294.754L319.68 203.528L392.06 132.403ZM408.435 345.98V372.365H523.735C502.993 422.693 457.303 457.22 408.435 468.697V511.455H332.488C348.203 551.046 375.939 583.67 408.316 612.085H441.341V636.318H72.5874V612.086H108.13C145.394 583.691 173.045 551.11 188.049 511.455H105.493V473.602C79.8823 464.53 54.2664 448.3 28.6531 426.024C54.3469 403.298 79.5295 390.684 105.493 384.604V345.983H408.434L408.435 345.98Z" fill="#2D2D2D"/>
</svg>
